<?xml version="1.0" encoding="UTF-8" standalone="no"?>
<svg
   xmlns:dc="http://purl.org/dc/elements/1.1/"
   xmlns:cc="http://creativecommons.org/ns#"
   xmlns:rdf="http://www.w3.org/1999/02/22-rdf-syntax-ns#"
   xmlns:svg="http://www.w3.org/2000/svg"
   xmlns="http://www.w3.org/2000/svg"
   id="svg858"
   version="1.1"
   viewBox="0 0 150 56.165"
   height="56.165001mm"
   width="150mm">
  <defs
     id="defs852" />
  <metadata
     id="metadata855">
    <rdf:RDF>
      <cc:Work
         rdf:about="">
        <dc:format>image/svg+xml</dc:format>
        <dc:type
           rdf:resource="http://purl.org/dc/dcmitype/StillImage" />
        <dc:title></dc:title>
      </cc:Work>
    </rdf:RDF>
  </metadata>
  <g
     transform="translate(0,-240.835)"
     id="layer1">
    <g
       transform="matrix(0.96262679,0,0,0.96262679,-18.873302,175.02259)"
       id="g1023">
      <path
         d="m 27.797065,103.33698 v 10.07248 0.31482 h 0.314818 5.665788 0.314783 v -0.6295 h -0.314783 -5.350898 v -9.7578 -0.31481 h -0.629708 z"
         style="fill:#000000;fill-opacity:1;fill-rule:nonzero;stroke:none;stroke-width:0.35277778"
         id="path829" />
      <path
         d="m 39.616355,103.33698 v 6.92489 c 0,1.00722 0.404107,1.8572 1.212003,2.54949 0.734413,0.60872 1.589722,0.91292 2.5654,0.91292 1.1436,0 2.093207,-0.39353 2.84861,-1.18033 0.619089,-0.66107 0.928581,-1.42169 0.928581,-2.28208 l 0.01552,-6.90919 0.01598,-0.31461 h -0.661176 v 0.29891 6.92489 c 0,0.8812 -0.372604,1.60521 -1.117423,2.17181 -0.597994,0.44079 -1.274904,0.6611 -2.030095,0.6611 -0.996703,0 -1.809997,-0.34632 -2.4396,-1.03861 -0.472087,-0.52469 -0.708095,-1.12268 -0.708095,-1.7943 l 0.0157,-6.90919 0.0157,-0.3146 h -0.661105 z"
         style="fill:#000000;fill-opacity:1;fill-rule:nonzero;stroke:none;stroke-width:0.35277778"
         id="path831" />
      <path
         d="m 53.293266,103.65187 h 5.776101 l -6.326892,9.58459 -0.314925,0.48782 h 0.267723 0.314607 6.924992 0.314784 v -0.6295 h -0.314784 -6.342697 l 6.326893,-9.58462 0.314713,-0.488 H 59.96627 59.651451 53.293266 52.978483 v 0.62971 z"
         style="fill:#000000;fill-opacity:1;fill-rule:nonzero;stroke:none;stroke-width:0.35277778"
         id="path833" />
      <path
         d="m 77.43586,113.40946 v -9.09669 l 6.657199,9.28571 0.09462,0.1258 h 0.471981 v -0.31482 l 0.0157,-10.07248 v -0.31482 h -0.629391 v 0.31482 l -0.0157,9.0967 -6.657516,-9.2855 -0.0943,-0.12602 h -0.472299 v 0.31482 10.07248 0.31482 h 0.629708 z"
         style="fill:#000000;fill-opacity:1;fill-rule:nonzero;stroke:none;stroke-width:0.35277778"
         id="path835" />
      <path
         d="m 91.112349,113.53537 4.123513,-9.4113 4.123408,9.4113 0.0786,0.18891 h 0.69261 l -0.204613,-0.44062 -4.4069,-10.07269 -0.0786,-0.1888 H 95.03125 l -0.07877,0.1888 -4.406724,10.07269 -0.204575,0.44062 h 0.692396 z"
         style="fill:#000000;fill-opacity:1;fill-rule:nonzero;stroke:none;stroke-width:0.35277778"
         id="path837" />
      <path
         d="m 108.95966,103.02217 h -0.6295 -3.47821 -0.31468 v 0.6297 h 0.31468 3.47821 v 9.75759 0.31482 h 0.6295 v -0.31482 -9.75759 h 3.4466 0.31489 v -0.6297 h -0.31489 z"
         style="fill:#000000;fill-opacity:1;fill-rule:nonzero;stroke:none;stroke-width:0.35277778"
         id="path839" />
      <path
         d="m 118.24505,103.33698 v 6.92489 c 0,1.00722 0.404,1.8572 1.2119,2.54949 0.73441,0.60872 1.58972,0.91292 2.56551,0.91292 1.14349,0 2.0931,-0.39353 2.84861,-1.18033 0.61898,-0.66107 0.92851,-1.42169 0.92851,-2.28208 l 0.0156,-6.90919 0.0159,-0.31461 h -0.6611 v 0.29891 6.92489 c 0,0.8812 -0.37261,1.60521 -1.1175,2.17181 -0.59803,0.44079 -1.2748,0.6611 -2.03002,0.6611 -0.99678,0 -1.81,-0.34632 -2.43971,-1.03861 -0.47209,-0.52469 -0.70809,-1.12268 -0.70809,-1.7943 l 0.0157,-6.90919 0.0158,-0.3146 h -0.66111 z"
         style="fill:#000000;fill-opacity:1;fill-rule:nonzero;stroke:none;stroke-width:0.35277778"
         id="path841" />
      <path
         d="m 138.09117,108.59358 c 0.90251,-0.2099 1.57399,-0.68721 2.0146,-1.43199 0.2309,-0.40944 0.34629,-0.83961 0.34629,-1.2906 0,-0.87101 -0.36731,-1.59502 -1.10169,-2.17202 -0.5981,-0.4512 -1.28531,-0.67681 -2.06181,-0.67681 l -4.37518,0.0159 h -0.31461 v 0.31461 l -0.0159,5.02059 v 0.31472 4.72147 0.31482 h 0.6296 v -0.31482 -4.72147 h 3.99729 c 0.56663,0.40908 1.0178,0.91277 1.35372,1.51109 0.38809,0.71328 0.81318,1.815 1.27458,3.30489 l 0.0631,0.22031 h 0.6609 l -0.1257,-0.40922 c -0.65048,-2.1613 -1.30118,-3.60927 -1.95171,-4.34369 -0.1258,-0.13642 -0.2571,-0.26239 -0.39348,-0.37779 z m -1.80972,-0.53512 h -0.0158 -0.0157 -0.0159 -0.0157 -0.0156 -0.0159 -0.0157 -0.0157 -0.0157 -0.0158 -0.0157 -0.0157 -0.0159 -0.0155 -0.0158 -0.0159 -0.0157 -0.0155 -0.016 -0.0157 -0.0157 -0.0157 -0.0157 -0.0158 -0.0157 -0.0159 -0.0155 -0.0157 -0.016 -0.0157 -0.0157 -0.0157 -0.0158 -0.0157 -0.0157 -0.0157 -0.0157 -0.0158 -0.0159 -0.0157 -0.0155 -0.016 -0.0157 -0.0157 -0.0157 -0.0157 -0.0158 -0.0157 -0.0159 -0.0155 -0.0157 -0.016 -0.0157 -0.0155 -0.0159 -0.0158 -0.0157 -0.0157 -0.0157 -0.0157 -0.0158 -0.0159 -0.0155 -0.0157 -0.016 -0.0157 -0.0157 -0.0157 -0.0157 -0.0158 -0.0157 -0.0157 -0.0157 -0.0157 l -0.016,0.0157 h -0.0157 -0.0155 -0.0159 -0.0158 -0.0157 -0.0157 -0.0157 -0.0157 -0.0158 -0.0159 -0.0155 -0.0157 -0.016 -0.0157 -0.0155 -0.0159 -0.0157 -0.0158 -0.0157 -0.0157 -0.0157 -0.0157 -0.016 -0.0155 -0.0157 -0.0159 -0.0158 -0.0157 -0.0157 -0.0157 -0.0157 -0.0158 -0.0157 -0.0157 -0.0157 -0.016 -0.0157 -0.0155 -0.0159 -0.0157 -0.0158 -0.0157 -0.0157 -0.0157 -0.0157 -0.016 -0.0155 -0.0157 -0.0159 -0.0158 -0.0155 -0.0159 -0.0157 -0.0157 -0.0158 -0.0157 -0.0157 -0.0157 -0.016 -0.0155 -0.0157 -0.0159 -0.0157 -0.0158 -0.0157 -0.0157 -0.0157 -0.0157 -0.0158 -0.0157 -0.0157 -0.0159 -0.0158 -0.0155 -0.0159 -0.0157 -0.0157 -0.0158 -0.0157 -0.0157 -0.0157 -0.016 -0.0155 -0.0157 -0.0159 -0.0157 -0.0155 -0.016 -0.0157 -0.0157 -0.0157 -0.0158 -0.0157 -0.0157 -0.0159 -0.0155 -0.0158 -0.0159 -0.0157 -0.0157 -0.0158 -0.0157 -0.0157 -0.0157 -0.0157 -0.0158 -0.0157 -0.0159 -0.0157 -0.0155 -0.016 -0.0157 -0.0157 -0.0157 -0.0158 -0.0157 -0.0157 -0.0159 -0.0313 v -4.42229 h 4.0761 c 0.84981,0 1.52661,0.29891 2.03031,0.89712 0.3357,0.3985 0.50369,0.83929 0.50369,1.322 0,0.71339 -0.3254,1.2906 -0.97588,1.73097 -0.46172,0.30441 -0.97582,0.4565 -1.54231,0.4565 z"
         style="fill:#000000;fill-opacity:1;fill-rule:nonzero;stroke:none;stroke-width:0.35277778"
         id="path843" />
      <path
         d="m 146.25956,113.53537 4.12341,-9.4113 4.12351,9.4113 0.0786,0.18891 h 0.69257 l -0.20457,-0.44062 -4.4069,-10.07269 -0.0786,-0.1888 h -0.40922 l -0.0788,0.1888 -4.40662,10.07269 -0.20461,0.44062 h 0.69233 z"
         style="fill:#000000;fill-opacity:1;fill-rule:nonzero;stroke:none;stroke-width:0.35277778"
         id="path845" />
      <path
         d="m 160.94316,103.33698 v 10.07248 0.31482 h 0.31492 5.66568 0.31489 v -0.6295 h -0.31489 -5.35089 v -9.7578 -0.31481 h -0.62971 z"
         style="fill:#000000;fill-opacity:1;fill-rule:nonzero;stroke:none;stroke-width:0.35277778"
         id="path847" />
      <path
         d="m 72.974879,122.29046 c -0.09652,0 -0.184608,-0.0238 -0.264512,-0.0711 -0.0799,-0.0474 -0.143616,-0.11049 -0.190994,-0.18979 -0.04741,-0.0792 -0.07101,-0.16612 -0.07101,-0.26081 0,-0.0963 0.0236,-0.18401 0.07101,-0.26299 0.04738,-0.0793 0.111089,-0.1426 0.190994,-0.19001 0.0799,-0.0473 0.167992,-0.0709 0.264512,-0.0709 0.09768,0 0.186479,0.0236 0.266595,0.0709 0.0799,0.0474 0.14358,0.1107 0.190993,0.19001 0.04731,0.079 0.07091,0.16668 0.07091,0.26299 0,0.0947 -0.0242,0.18161 -0.07221,0.26081 -0.04819,0.0793 -0.112183,0.14238 -0.192087,0.18979 -0.08001,0.0473 -0.168205,0.0711 -0.264196,0.0711"
         style="fill:#000000;fill-opacity:1;fill-rule:nonzero;stroke:none;stroke-width:0.35277778"
         id="path849" />
      <path
         d="m 83.452167,123.64587 c -0.09468,0 -0.19251,-0.0108 -0.293405,-0.0325 -0.100894,-0.0219 -0.198614,-0.0521 -0.293405,-0.0909 -0.09469,-0.0389 -0.180093,-0.0837 -0.256187,-0.13518 l 0.218898,-0.37723 c 0.04971,0.0418 0.108691,0.0788 0.177095,0.1106 0.06819,0.0319 0.141711,0.0568 0.220098,0.0744 0.07821,0.018 0.155504,0.027 0.231598,0.027 h 0.0163 c 0.149189,0 0.288713,-0.0285 0.419417,-0.0852 0.130175,-0.0567 0.245181,-0.1349 0.344594,-0.2352 0.09941,-0.10001 0.176882,-0.21562 0.232798,-0.34692 0.05591,-0.13109 0.08389,-0.2704 0.08389,-0.41808 l -0.0093,-2.3054 0.423792,0.002 0.007,2.3078 c 0,0.16778 -0.02529,0.32689 -0.0756,0.47759 -0.05059,0.1506 -0.121497,0.28819 -0.213078,0.41339 -0.09162,0.12492 -0.199496,0.23301 -0.323815,0.3248 -0.124213,0.0915 -0.261302,0.16252 -0.410986,0.21283 -0.149825,0.0506 -0.307904,0.0759 -0.474027,0.0759 h -0.02568 z"
         style="fill:#000000;fill-opacity:1;fill-rule:nonzero;stroke:none;stroke-width:0.35277778"
         id="path851" />
      <path
         d="m 90.937265,123.63416 c -0.211102,0 -0.412997,-0.0325 -0.605613,-0.0977 -0.192476,-0.0652 -0.368971,-0.15681 -0.52959,-0.27492 -0.160902,-0.1179 -0.300214,-0.25728 -0.418113,-0.41808 -0.118074,-0.16062 -0.209691,-0.33669 -0.274884,-0.5286 -0.06519,-0.1918 -0.09779,-0.39321 -0.09779,-0.60431 0,-0.21269 0.0326,-0.41578 0.09779,-0.6091 0.06519,-0.19308 0.157198,-0.3701 0.275907,-0.5309 0.118781,-0.16058 0.258586,-0.30039 0.419383,-0.4191 0.160619,-0.11878 0.337114,-0.21078 0.529625,-0.27598 0.192687,-0.0652 0.394476,-0.0977 0.605684,-0.0977 0.212584,0 0.415114,0.0325 0.607801,0.0977 0.192405,0.0652 0.369005,0.1572 0.529801,0.27598 0.160585,0.11871 0.300391,0.25852 0.4191,0.4191 0.118816,0.1608 0.210785,0.33782 0.276014,0.5309 0.06519,0.19332 0.09768,0.39641 0.09768,0.6091 0,0.2111 -0.03249,0.41251 -0.09768,0.60431 -0.06523,0.19191 -0.157198,0.36798 -0.276014,0.5286 -0.118709,0.1608 -0.258515,0.30018 -0.4191,0.41808 -0.160796,0.11811 -0.337784,0.20973 -0.531106,0.27492 -0.193287,0.0652 -0.396205,0.0977 -0.608895,0.0977 z m 0,-0.42848 c 0.166194,0 0.323991,-0.0253 0.473992,-0.0756 0.149825,-0.0506 0.287408,-0.1215 0.413209,-0.21312 0.125695,-0.0918 0.234915,-0.19988 0.327095,-0.3248 0.0925,-0.1251 0.164007,-0.26257 0.214419,-0.4124 0.05059,-0.14968 0.0756,-0.30688 0.0756,-0.47138 0,-0.1663 -0.02501,-0.3242 -0.0756,-0.4741 -0.05041,-0.14982 -0.12192,-0.2873 -0.214419,-0.41222 -0.09218,-0.12488 -0.2014,-0.23368 -0.327095,-0.32607 -0.125801,-0.0922 -0.263384,-0.16422 -0.413209,-0.21541 -0.150001,-0.0512 -0.307798,-0.0769 -0.473992,-0.0769 -0.164606,0 -0.321804,0.0257 -0.471593,0.0769 -0.14979,0.0512 -0.287197,0.12319 -0.412292,0.21541 -0.124918,0.0924 -0.233115,0.20119 -0.324908,0.32607 -0.09151,0.12492 -0.162525,0.2624 -0.213007,0.41222 -0.05059,0.1499 -0.07571,0.3078 -0.07571,0.4741 0,0.1645 0.02512,0.3217 0.07571,0.47138 0.05048,0.14983 0.121497,0.2873 0.213007,0.4124 0.09179,0.12492 0.19999,0.23301 0.324908,0.3248 0.125095,0.0916 0.262502,0.16253 0.412292,0.21312 0.149789,0.0503 0.306987,0.0756 0.471593,0.0756"
         style="fill:#000000;fill-opacity:1;fill-rule:nonzero;stroke:none;stroke-width:0.35277778"
         id="path853" />
      <path
         d="m 96.945952,123.58526 v -3.75398 h 0.423828 v 3.75398 z"
         style="fill:#000000;fill-opacity:1;fill-rule:nonzero;stroke:none;stroke-width:0.35277778"
         id="path855" />
      <path
         d="m 104.36568,123.58526 -0.27492,-0.61708 h -2.04939 l -0.27471,0.61708 h -0.45889 l 1.73499,-3.8124 h 0.0465 l 1.7374,3.8124 z m -2.159,-0.98499 h 1.7211 l -0.85951,-1.93071 z"
         style="fill:#000000;fill-opacity:1;fill-rule:nonzero;stroke:none;stroke-width:0.35277778"
         id="path857" />
      <path
         d="m 109.80135,123.63649 c -0.20648,0 -0.39469,-0.032 -0.56469,-0.0966 -0.17011,-0.0644 -0.31609,-0.15131 -0.4378,-0.2607 -0.12188,-0.1094 -0.21329,-0.23111 -0.27361,-0.36449 l 0.32593,-0.23989 c 0.0573,0.1071 0.1355,0.20058 0.23407,0.28038 0.0985,0.0801 0.2099,0.1426 0.33411,0.18761 0.12432,0.0451 0.25242,0.0676 0.38432,0.0676 0.12259,0 0.23799,-0.0155 0.3459,-0.0468 0.10788,-0.0308 0.20267,-0.0752 0.28399,-0.1325 0.0814,-0.0574 0.14548,-0.12453 0.1923,-0.2014 0.0465,-0.0769 0.0699,-0.16193 0.0699,-0.25513 0,-0.10559 -0.03,-0.19848 -0.0899,-0.27827 -0.0597,-0.0799 -0.13931,-0.15131 -0.23858,-0.21421 -0.0994,-0.0629 -0.2092,-0.11959 -0.32971,-0.17011 -0.12019,-0.0504 -0.23999,-0.0982 -0.35962,-0.14319 -0.0916,-0.0357 -0.18397,-0.0744 -0.27728,-0.11649 -0.093,-0.0418 -0.1814,-0.0888 -0.26529,-0.14083 -0.0839,-0.052 -0.15851,-0.11257 -0.2237,-0.18157 -0.0652,-0.0691 -0.11642,-0.14831 -0.1536,-0.23753 -0.0374,-0.0893 -0.0559,-0.1923 -0.0559,-0.30868 0,-0.14432 0.0302,-0.27792 0.0907,-0.40051 0.0606,-0.1228 0.1445,-0.22941 0.2516,-0.32011 0.107,-0.0909 0.23199,-0.1615 0.3749,-0.21198 0.1428,-0.0506 0.29662,-0.0757 0.46119,-0.0757 0.18613,0 0.35162,0.0306 0.49611,0.0918 0.14422,0.0614 0.26529,0.14301 0.36329,0.24472 0.0977,0.10178 0.1699,0.21459 0.21643,0.3387 l -0.31901,0.21428 c -0.0404,-0.0947 -0.099,-0.17738 -0.17569,-0.24811 -0.0769,-0.0705 -0.16531,-0.1258 -0.2656,-0.16528 -0.10002,-0.0395 -0.20691,-0.0593 -0.32011,-0.0593 -0.1009,0 -0.1965,0.0156 -0.28661,0.0466 -0.0901,0.031 -0.16951,0.0737 -0.23879,0.1281 -0.069,0.0544 -0.1234,0.11811 -0.16291,0.19099 -0.0396,0.0728 -0.0593,0.15141 -0.0593,0.23509 0,0.0901 0.0236,0.1681 0.0709,0.23411 0.0474,0.0659 0.1126,0.12371 0.19568,0.17342 0.0831,0.0497 0.17851,0.0964 0.2866,0.13977 0.1077,0.0435 0.22221,0.0886 0.34332,0.13512 0.14129,0.0573 0.27739,0.11828 0.4087,0.18291 0.1313,0.0644 0.24839,0.1385 0.35179,0.22218 0.10329,0.0839 0.1851,0.18161 0.2456,0.29341 0.0605,0.1119 0.0907,0.24299 0.0907,0.39359 0,0.1615 -0.0344,0.3079 -0.1034,0.43921 -0.0691,0.1312 -0.16468,0.24359 -0.2866,0.3375 -0.12199,0.0939 -0.26239,0.16619 -0.4215,0.21671 -0.1591,0.0506 -0.32868,0.0756 -0.50881,0.0756"
         style="fill:#000000;fill-opacity:1;fill-rule:nonzero;stroke:none;stroke-width:0.35277778"
         id="path859" />
      <path
         d="m 120.79595,122.29046 c -0.0964,0 -0.18457,-0.0238 -0.26447,-0.0711 -0.0798,-0.0474 -0.14362,-0.11049 -0.19093,-0.18979 -0.0474,-0.0792 -0.071,-0.16612 -0.071,-0.26081 0,-0.0963 0.0236,-0.18401 0.071,-0.26299 0.0473,-0.0793 0.11113,-0.1426 0.19093,-0.19001 0.0799,-0.0473 0.1681,-0.0709 0.26447,-0.0709 0.0978,0 0.18662,0.0236 0.26663,0.0709 0.0799,0.0474 0.14369,0.1107 0.191,0.19001 0.0474,0.079 0.071,0.16668 0.071,0.26299 0,0.0947 -0.0242,0.18161 -0.0722,0.26081 -0.0483,0.0793 -0.11222,0.14238 -0.19212,0.18979 -0.0801,0.0473 -0.16821,0.0711 -0.26431,0.0711"
         style="fill:#000000;fill-opacity:1;fill-rule:nonzero;stroke:none;stroke-width:0.35277778"
         id="path861" />
      <path
         id="path865"
         style="fill:#000000;fill-opacity:1;fill-rule:evenodd;stroke:none;stroke-width:0.35277778"
         d="m 144.10987,88.299867 0.0232,0.01111 c -3.82739,1.694886 -8.01747,2.409084 -12.25737,1.996299 -7.03742,-0.684918 -14.07132,-3.702014 -19.75132,-7.280204 -11.40139,-7.182485 -21.687581,-0.716315 -30.970892,5.119687 -4.008015,2.51961 -7.83082,4.922908 -11.493112,6.079596 v 1.06e-4 c -0.995998,0.383716 -1.775883,-0.0296 -1.823297,-1.1182 l -0.01771,-0.407388 c 0,-0.815093 0.212619,-1.582914 0.637822,-2.303392 0.342582,-0.555307 0.608401,-1.039495 0.797278,-1.453021 -0.543278,0.21262 -0.992188,0.496218 -1.346588,0.850512 -0.602404,0.531601 -1.181206,1.092588 -1.736302,1.683209 -0.295381,0.307199 -0.587692,0.6084 -0.877111,0.903675 -0.289384,0.295311 -0.528567,0.443019 -0.717586,0.443019 -0.153599,0 -0.29531,-0.0768 -0.425308,-0.230399 -0.212478,-0.248109 -0.330694,-0.537422 -0.354295,-0.868222 0,-0.37779 0.0502,-0.734095 0.150918,-1.069093 -0.0938,0.102023 -0.18863,0.203024 -0.284303,0.303318 -1.571096,1.582879 -3.449214,2.610485 -5.634496,3.082996 -1.464698,0.342512 -2.746411,0.513786 -3.844925,0.513786 -0.614186,0 -1.299387,-0.05898 -2.055284,-0.177201 -0.992187,-0.153493 -2.285717,-0.454695 -3.880414,-0.903499 l -0.141676,-0.01778 c -0.118109,0 -0.224507,0.03538 -0.319016,0.106292 -0.874007,0.708801 -1.848485,1.216589 -2.923505,1.523788 -0.137689,0.04082 -0.276578,0.07281 -0.416701,0.09603 -0.184009,0.03048 -0.369888,0.04568 -0.557777,0.04568 -0.637928,0 -1.157605,-0.147602 -1.559207,-0.442912 -0.248003,-0.200801 -0.37211,-0.4076 -0.37211,-0.620184 0,-0.188912 0.08862,-0.383892 0.265818,-0.584694 0.401567,-0.401602 0.885895,-0.649605 1.45288,-0.744114 0.122907,-0.0205 0.246309,-0.03881 0.370311,-0.05479 0.448098,-0.05793 0.903499,-0.087 1.366096,-0.087 0.555202,0 1.110298,0.04727 1.665605,0.141781 l 0.159385,0.01771 c 0.177095,0 0.336691,-0.07091 0.478402,-0.212619 1.358406,-1.275786 2.551501,-2.592882 3.579107,-3.951288 1.890007,-2.374194 3.567289,-4.884314 5.032093,-7.530288 1.535606,-2.787721 3.348707,-5.374499 5.439515,-7.760723 0.283493,-0.306987 0.584694,-0.596477 0.903605,-0.868186 0.295381,-0.224402 0.602368,-0.502003 0.921385,-0.832697 0.153494,-0.1772 0.307093,-0.265818 0.460693,-0.265818 0.318911,0 0.478402,0.08273 0.478402,0.248109 0,0.01182 -0.01178,0.03242 -0.03538,0.06202 -0.02371,0.0296 -0.0532,0.05909 -0.08872,0.08858 -0.03538,0.02949 -0.06498,0.05609 -0.08858,0.07969 -0.838588,1.086697 -1.559207,2.250193 -2.161611,3.490524 -0.07091,0.118181 -0.132891,0.227401 -0.185984,0.327801 -0.0532,0.100472 -0.100401,0.186091 -0.141817,0.256999 -0.04138,0.07087 -0.09158,0.106186 -0.1506,0.106186 -0.03549,0 -0.0768,-0.0088 -0.124002,-0.02649 -0.04731,-0.01782 -0.07091,-0.03842 -0.07091,-0.06202 0,-0.09447 0.01182,-0.141781 0.03542,-0.141781 0.129998,-0.472405 0.307199,-0.921315 0.531601,-1.346623 l 0.212583,-0.442878 c 0.05913,-0.09451 0.08862,-0.189018 0.08862,-0.283492 l -0.513891,0.620078 c -2.055319,2.445208 -3.874311,5.167912 -5.457225,8.168216 -1.547389,2.870376 -3.366488,5.551805 -5.457296,8.044074 -0.732296,0.874219 -1.57099,1.695133 -2.515976,2.462918 l 1.045387,0.283492 c 1.169387,0.318911 2.362411,0.543313 3.579106,0.673312 0.3308,0.03538 0.655603,0.0532 0.974584,0.0532 1.015824,0 2.232413,-0.189018 3.64991,-0.56702 1.80728,-0.437092 3.437396,-1.240296 4.890311,-2.40979 l 0.389784,-0.318911 c 0.614186,-0.460586 1.198915,-0.962589 1.754117,-1.505973 0.224472,-0.224402 0.389784,-0.336726 0.496182,-0.336726 0.01771,0 0.0344,0.0018 0.05009,0.0048 0.06311,0.0045 0.126401,0.02787 0.189618,0.06999 0.236185,0.1536 0.354295,0.3308 0.354295,0.531601 0,0.141781 -0.05902,0.295275 -0.177094,0.460692 -0.3308,0.460587 -0.614328,0.944986 -0.850512,1.45281 -0.09451,0.189089 -0.159491,0.401673 -0.19491,0.637893 0.141711,-0.03542 0.256928,-0.08862 0.345511,-0.159421 0.08851,-0.07087 0.174201,-0.147672 0.256892,-0.230399 v -0.01767 c 0.885896,-0.92142 1.801425,-1.807316 2.746305,-2.657792 0.01189,-0.0236 0.0296,-0.04131 0.0532,-0.05313 0.23629,-0.23629 0.502002,-0.437091 0.797313,-0.602403 0.188983,-0.106398 0.3544,-0.159491 0.496076,-0.159491 0.11811,0 0.242217,0.0472 0.37211,0.141711 0.248108,0.200801 0.37211,0.454801 0.37211,0.762 0,0.271604 -0.11811,0.637787 -0.354401,1.098479 l -0.01771,0.03542 c -0.283492,0.543384 -0.555202,1.086697 -0.814987,1.63008 -0.200802,0.38982 -0.367912,0.799324 -0.407494,1.240332 -0.07602,0.846984 0.387773,0.939694 1.207876,0.707672 3.598121,-1.150302 7.379793,-3.527601 11.343393,-6.019377 9.377327,-5.895128 19.767726,-12.426914 31.367136,-5.119616 5.6382,3.551907 12.6153,6.546109 19.58809,7.224818 4.1632,0.405271 8.32549,-0.01542 12.1993,-1.637418 z m -99.986215,4.939418 c -0.01288,0.0021 -0.02579,0.0046 -0.0387,0.0069 -0.436986,0.0708 -0.809096,0.265818 -1.116189,0.584694 -0.129998,0.153529 -0.194909,0.289419 -0.194909,0.407529 0,0.1772 0.11811,0.330799 0.354294,0.460692 0.177201,0.05898 0.34851,0.08858 0.513927,0.08858 0.129893,0 0.259786,-0.01767 0.389784,-0.0532 0.109114,-0.02939 0.217488,-0.06121 0.32512,-0.09529 0.928899,-0.294817 1.801001,-0.765105 2.616094,-1.410724 -0.0472,0 -0.08273,-0.006 -0.106327,-0.01767 -0.200766,-0.07091 -0.602368,-0.106292 -1.204771,-0.106292 -0.518407,0 -1.031205,0.04487 -1.538323,0.134797" />
      <path
         id="path867"
         style="fill:#000000;fill-opacity:1;fill-rule:evenodd;stroke:none;stroke-width:0.35277778"
         d="m 151.59606,85.38938 c -0.12029,0.01189 -2.2934,0.0297 -2.40199,0.0533 -0.75579,0.164677 -1.22682,0.614186 -1.4127,1.348705 -0.0337,0.132997 -0.058,2.05419 -0.073,2.205884 -0.015,-0.150989 -0.0392,-2.071617 -0.0726,-2.204014 -0.17671,-0.700194 -0.6121,-1.141801 -1.30602,-1.324787 -0.13959,-0.03679 -2.49188,-0.06322 -2.6525,-0.07909 0.16231,-0.01602 2.51591,-0.04279 2.65681,-0.08022 0.69518,-0.184573 1.12998,-0.629602 1.3046,-1.334982 0.0319,-0.129187 0.0552,-2.260705 0.0697,-2.40739 0.0146,0.147672 0.038,2.280002 0.0703,2.409895 0.18411,0.740904 0.65602,1.194082 1.41562,1.3595 0.10848,0.0236 2.28159,0.04127 2.40178,0.0532" />
    </g>
  </g>
</svg>
