<?xml version="1.0" encoding="UTF-8" standalone="no"?>
<svg
   xmlns:dc="http://purl.org/dc/elements/1.1/"
   xmlns:cc="http://creativecommons.org/ns#"
   xmlns:rdf="http://www.w3.org/1999/02/22-rdf-syntax-ns#"
   xmlns:svg="http://www.w3.org/2000/svg"
   xmlns="http://www.w3.org/2000/svg"
   id="svg8"
   version="1.1"
   viewBox="0 0 4.2333332 4.2333335"
   height="16"
   width="16">
  <defs
     id="defs2" />
  <metadata
     id="metadata5">
    <rdf:RDF>
      <cc:Work
         rdf:about="">
        <dc:format>image/svg+xml</dc:format>
        <dc:type
           rdf:resource="http://purl.org/dc/dcmitype/StillImage" />
        <dc:title></dc:title>
      </cc:Work>
    </rdf:RDF>
  </metadata>
  <g
     transform="translate(0,-292.76664)"
     id="layer1">
    <rect
       ry="2.1166666"
       y="292.76663"
       x="-3.3306691e-16"
       height="4.2333374"
       width="4.2333331"
       id="rect4789"
       style="fill:#ffe5f7;fill-opacity:1;stroke:none;stroke-width:0.24190488;stroke-miterlimit:4;stroke-dasharray:none;paint-order:stroke fill markers" />
    <g
       transform="matrix(0.06397381,0,0,0.06397381,8.4960331,271.92216)"
       id="g5169">
      <g
         id="g877"
         transform="matrix(0.35277777,0,0,-0.35277777,-196.45676,489.99633)">
        <path
           d="m 319.9652,372.6388 c -5.8289,-3.2737 -11.376,-7.6181 -17.3092,-10.9933 -4.0814,-2.3218 -8.4963,-3.9915 -12.7043,-5.3206 v 0 c -2.2105,-0.8515 -3.9413,0.0657 -4.0462,2.4814 l -0.0397,0.9046 c 0,1.8088 0.472,3.5127 1.4159,5.112 0.7603,1.2322 1.3501,2.3068 1.7694,3.2244 -1.2059,-0.472 -2.202,-1.101 -2.9886,-1.8876 -1.3371,-1.1795 -2.6215,-2.4248 -3.8534,-3.7355 -0.6557,-0.6817 -1.3042,-1.3502 -1.9468,-2.0055 -0.6421,-0.6554 -1.173,-0.9831 -1.5925,-0.9831 -0.3408,0 -0.6554,0.1704 -0.9437,0.5111 -0.4717,0.5505 -0.7342,1.1928 -0.7863,1.927 0,0.8382 0.1114,1.6291 0.3348,2.3726 -0.2084,-0.2265 -0.4187,-0.4507 -0.631,-0.6732 -3.4867,-3.5127 -7.655,-5.7935 -12.5048,-6.8423 -3.2505,-0.76 -6.0951,-1.1401 -8.5331,-1.1401 -1.3632,0 -2.8837,0.131 -4.5615,0.3932 -2.202,0.3407 -5.0724,1.0091 -8.6117,2.0052 l -0.3144,0.0397 c -0.2624,0 -0.4983,-0.0788 -0.7081,-0.2361 -1.9397,-1.573 -4.1025,-2.7 -6.4882,-3.3818 -0.3055,-0.0904 -0.614,-0.1615 -0.9246,-0.2131 -0.4085,-0.0678 -0.8212,-0.1015 -1.2382,-0.1015 -1.4156,0 -2.569,0.3277 -3.4603,0.983 -0.5504,0.4459 -0.826,0.9046 -0.826,1.3763 0,0.4195 0.1967,0.8521 0.5899,1.2979 0.8915,0.8913 1.9664,1.4417 3.2247,1.6515 0.2727,0.0454 0.5465,0.0859 0.8218,0.1213 0.9944,0.1287 2.0052,0.1934 3.0319,0.1934 1.2319,0 2.4642,-0.1052 3.6964,-0.3147 l 0.3537,-0.0394 c 0.3932,0 0.7473,0.1573 1.0616,0.4717 3.015,2.8315 5.6628,5.7546 7.9436,8.7693 4.1941,5.269 7.9168,10.8399 11.1676,16.7122 3.4081,6.1869 7.4319,11.9279 12.0722,17.2236 0.629,0.6814 1.2974,1.3237 2.0052,1.9267 0.6557,0.498 1.3371,1.1143 2.0449,1.8482 0.3408,0.3931 0.6815,0.5898 1.0225,0.5898 0.7078,0 1.0619,-0.1836 1.0619,-0.5504 0,-0.0264 -0.0264,-0.072 -0.0789,-0.1378 -0.0524,-0.0655 -0.1179,-0.131 -0.1967,-0.1967 -0.0785,-0.0655 -0.1443,-0.1245 -0.1964,-0.1769 -1.8615,-2.4117 -3.4606,-4.9938 -4.7974,-7.7465 -0.1573,-0.2622 -0.2951,-0.5049 -0.413,-0.7277 -0.1182,-0.2228 -0.2228,-0.4127 -0.3146,-0.57 -0.0919,-0.1574 -0.2033,-0.2359 -0.3342,-0.2359 -0.0788,0 -0.1704,0.0196 -0.2753,0.059 -0.1049,0.0394 -0.1573,0.0853 -0.1573,0.1375 0,0.2097 0.0264,0.3146 0.0785,0.3146 0.2886,1.0486 0.6818,2.0449 1.1798,2.9886 l 0.472,0.983 c 0.1309,0.2098 0.1964,0.4196 0.1964,0.629 l -1.1404,-1.3762 c -4.5612,-5.4266 -8.5983,-11.4692 -12.1113,-18.1278 -3.4341,-6.3703 -7.4715,-12.3211 -12.1116,-17.8526 -1.6253,-1.94 -3.4866,-3.7619 -5.5836,-5.4658 l 2.3198,-0.6293 c 2.5954,-0.7078 5.243,-1.2058 7.9433,-1.4944 0.7341,-0.0785 1.455,-0.1179 2.1628,-0.1179 2.2544,0 4.9547,0.4195 8.1006,1.2586 4.011,0.9697 7.6286,2.7524 10.853,5.3478 l 0.8651,0.7078 c 1.3632,1.0222 2.6609,2.1365 3.8931,3.3423 0.4981,0.4981 0.8651,0.7473 1.101,0.7473 0.0394,0 0.0765,-0.003 0.1114,-0.0108 0.14,-0.01 0.2803,-0.0618 0.4207,-0.1553 0.5244,-0.3408 0.7863,-0.7339 0.7863,-1.1795 0,-0.3147 -0.131,-0.6554 -0.3932,-1.0225 -0.7342,-1.0225 -1.3632,-2.0974 -1.8876,-3.2244 -0.2095,-0.4195 -0.3537,-0.8915 -0.4323,-1.4156 0.3147,0.0785 0.5701,0.1964 0.7668,0.3537 0.1965,0.1574 0.3867,0.3277 0.5701,0.5114 v 0.0394 c 1.9661,2.0446 3.9979,4.0107 6.095,5.8983 0.0264,0.0525 0.0658,0.0919 0.1179,0.118 0.5245,0.5241 1.1143,0.97 1.7697,1.3368 0.4193,0.2361 0.7863,0.354 1.101,0.354 0.2622,0 0.5374,-0.1049 0.8257,-0.3146 0.5505,-0.4456 0.826,-1.0094 0.826,-1.6909 0,-0.6029 -0.2625,-1.4156 -0.7866,-2.4381 l -0.0394,-0.0785 c -0.6293,-1.2058 -1.2322,-2.412 -1.8088,-3.6178 -0.4456,-0.8652 -0.8163,-1.774 -0.9042,-2.7525 -0.1687,-1.8799 0.8606,-2.0854 2.6807,-1.5707 4.4952,1.4363 8.6522,2.9452 12.4404,4.9884 5.9732,3.2222 11.3032,7.2565 17.6803,10.4933 z m -86.6878,-14.123 c -0.0286,-0.005 -0.0572,-0.0102 -0.0858,-0.0153 -0.9698,-0.1574 -1.7955,-0.5899 -2.4772,-1.2977 -0.2883,-0.3408 -0.4326,-0.6421 -0.4326,-0.9046 0,-0.3928 0.2622,-0.7339 0.7863,-1.0221 0.3935,-0.131 0.7736,-0.1968 1.1404,-0.1968 0.2886,0 0.5769,0.0394 0.8651,0.118 0.2424,0.0654 0.4828,0.136 0.7217,0.2117 2.0614,0.654 3.9969,1.698 5.806,3.1309 -0.1049,0 -0.1834,0.013 -0.2359,0.0391 -0.4456,0.1573 -1.3371,0.2361 -2.6739,0.2361 -1.1506,0 -2.2884,-0.0998 -3.4141,-0.2993"
           style="fill:#000000;fill-opacity:1;fill-rule:evenodd;stroke:none"
           id="path879-2" />
        <path
           d="m 293.3507,383.0618 c -0.267,-0.0266 -5.0899,-0.066 -5.3309,-0.1185 -1.6775,-0.3653 -2.7226,-1.3631 -3.1354,-2.9931 -0.0748,-0.2951 -0.1287,-4.5589 -0.1621,-4.8957 -0.0329,0.3354 -0.0867,4.5975 -0.161,4.8915 -0.392,1.5539 -1.3584,2.5342 -2.8984,2.9404 -0.3099,0.0816 -5.5301,0.14 -5.8867,0.1754 0.3602,0.0355 5.5836,0.095 5.8963,0.178 1.5429,0.4096 2.5078,1.3972 2.8953,2.9628 0.0709,0.2866 0.1225,5.0171 0.1545,5.3428 0.0326,-0.3277 0.0845,-5.0602 0.1562,-5.3485 0.4085,-1.644 1.4559,-2.6501 3.1416,-3.0169 0.241,-0.0524 5.0636,-0.0918 5.3306,-0.1182"
           style="fill:#000000;fill-opacity:1;fill-rule:evenodd;stroke:none"
           id="path881-7" />
      </g>
      <text
         transform="rotate(-1.4497092)"
         style="font-variant:normal;font-weight:normal;font-size:2.90241933px;font-family:LEMONMILK;-inkscape-font-specification:LEMONMILK-Regular;writing-mode:lr-tb;fill:#000000;fill-opacity:1;fill-rule:nonzero;stroke:none;stroke-width:0.35278487"
         id="text885"
         x="-110.32626"
         y="332.38101">
        <tspan
           x="-110.32626"
           y="332.38101"
           id="tspan883"
           style="stroke-width:0.35278487">A</tspan>
      </text>
      <text
         transform="rotate(7.244411)"
         style="font-variant:normal;font-weight:normal;font-size:2.90220189px;font-family:LEMONMILK;-inkscape-font-specification:LEMONMILK-Regular;writing-mode:lr-tb;fill:#000000;fill-opacity:1;fill-rule:nonzero;stroke:none;stroke-width:0.35277164"
         id="text889"
         x="-54.547195"
         y="344.72519">
        <tspan
           x="-54.547195"
           y="344.72519"
           id="tspan887"
           style="stroke-width:0.35277164">T</tspan>
      </text>
      <text
         transform="rotate(18.694057)"
         style="font-variant:normal;font-weight:normal;font-size:2.90203595px;font-family:LEMONMILK;-inkscape-font-specification:LEMONMILK-Regular;writing-mode:lr-tb;fill:#000000;fill-opacity:1;fill-rule:nonzero;stroke:none;stroke-width:0.35276157"
         id="text893"
         x="18.976147"
         y="348.04166">
        <tspan
           x="18.976147"
           y="348.04166"
           id="tspan891"
           style="stroke-width:0.35276157">U</tspan>
      </text>
      <text
         transform="rotate(-12.996764)"
         style="font-variant:normal;font-weight:normal;font-size:2.90240526px;font-family:LEMONMILK;-inkscape-font-specification:LEMONMILK-Regular;writing-mode:lr-tb;fill:#000000;fill-opacity:1;fill-rule:nonzero;stroke:none;stroke-width:0.35278401"
         id="text897"
         x="-179.2704"
         y="303.39139">
        <tspan
           x="-179.2704"
           y="303.39139"
           id="tspan895"
           style="stroke-width:0.35278401">N</tspan>
      </text>
      <text
         transform="rotate(27.115956)"
         style="font-variant:normal;font-weight:normal;font-size:2.90239453px;font-family:LEMONMILK;-inkscape-font-specification:LEMONMILK-Regular;writing-mode:lr-tb;fill:#000000;fill-opacity:1;fill-rule:nonzero;stroke:none;stroke-width:0.35278335"
         id="text901"
         x="74.167984"
         y="341.03821">
        <tspan
           x="74.167984"
           y="341.03821"
           id="tspan899"
           style="stroke-width:0.35278335">R</tspan>
      </text>
      <text
         transform="rotate(-27.115956)"
         style="font-variant:normal;font-weight:normal;font-size:2.90239453px;font-family:LEMONMILK;-inkscape-font-specification:LEMONMILK-Regular;writing-mode:lr-tb;fill:#000000;fill-opacity:1;fill-rule:nonzero;stroke:none;stroke-width:0.35278335"
         id="text905"
         x="-253.76369"
         y="250.11481">
        <tspan
           x="-253.76369"
           y="250.11481"
           id="tspan903"
           style="stroke-width:0.35278335">Z</tspan>
      </text>
      <text
         transform="rotate(38.161409)"
         style="font-variant:normal;font-weight:normal;font-size:2.90250015px;font-family:LEMONMILK;-inkscape-font-specification:LEMONMILK-Regular;writing-mode:lr-tb;fill:#000000;fill-opacity:1;fill-rule:nonzero;stroke:none;stroke-width:0.35278979"
         id="text909"
         x="142.40762"
         y="319.95691">
        <tspan
           x="142.40762"
           y="319.95691"
           id="tspan907"
           style="stroke-width:0.35278979">A</tspan>
      </text>
      <text
         transform="rotate(-38.161409)"
         style="font-variant:normal;font-weight:normal;font-size:2.90250015px;font-family:LEMONMILK;-inkscape-font-specification:LEMONMILK-Regular;writing-mode:lr-tb;fill:#000000;fill-opacity:1;fill-rule:nonzero;stroke:none;stroke-width:0.35278979"
         id="text913"
         x="-301.44354"
         y="196.71622">
        <tspan
           x="-301.44354"
           y="196.71622"
           id="tspan911"
           style="stroke-width:0.35278979">U</tspan>
      </text>
      <text
         transform="rotate(49.103513)"
         style="font-variant:normal;font-weight:normal;font-size:2.90235186px;font-family:LEMONMILK;-inkscape-font-specification:LEMONMILK-Regular;writing-mode:lr-tb;fill:#000000;fill-opacity:1;fill-rule:nonzero;stroke:none;stroke-width:0.35278076"
         id="text917"
         x="205.07376"
         y="286.49789">
        <tspan
           x="205.07376"
           y="286.49789"
           id="tspan915"
           style="stroke-width:0.35278076">L</tspan>
      </text>
      <text
         transform="rotate(-49.103513)"
         style="font-variant:normal;font-weight:normal;font-size:2.90235186px;font-family:LEMONMILK;-inkscape-font-specification:LEMONMILK-Regular;writing-mode:lr-tb;fill:#000000;fill-opacity:1;fill-rule:nonzero;stroke:none;stroke-width:0.35278076"
         id="text921"
         x="-337.3273"
         y="135.75188">
        <tspan
           x="-337.3273"
           y="135.75188"
           id="tspan919"
           style="stroke-width:0.35278076">L</tspan>
      </text>
      <path
         d="m -107.48875,383.80123 0.0149,0.004 c 0.4844,0.13861 0.98619,-0.13681 1.12692,-0.62819 l 0.38078,-1.35661 -0.3442,-0.10008 -0.38051,1.35579 c -0.0832,0.29069 -0.3937,0.46969 -0.68717,0.3857 l -0.01,-0.003 c -0.1239,-0.0354 -0.22761,-0.11031 -0.289,-0.2032 l -0.26091,0.2534 c 0.10978,0.13438 0.2721,0.2412 0.44901,0.29179 z m 4.26057,0.93009 c 0.64371,0.0839 1.23903,-0.3714 1.32253,-1.0118 0.0842,-0.64569 -0.3738,-1.2428 -1.01621,-1.32648 -0.64372,-0.084 -1.23811,0.37578 -1.32232,1.02151 -0.0835,0.64039 0.37363,1.23299 1.016,1.31677 z m 0.0467,-0.35828 c -0.44588,-0.0581 -0.76211,-0.46919 -0.704,-0.91461 0.0583,-0.44781 0.46962,-0.76539 0.91553,-0.70728 0.44587,0.0582 0.76468,0.47099 0.70629,0.91877 -0.0581,0.44542 -0.47191,0.7613 -0.91782,0.70312 z m 3.394322,0.55549 0.358281,-0.008 -0.0532,-2.28028 -0.358387,0.008 z m 4.322092,-0.33888 0.38481,-0.0488 -1.357312,-2.17519 -0.0212,0.002 -0.771208,2.44528 0.384916,-0.0488 0.11049,-0.36459 1.071492,-0.13589 0.198014,0.3254 z m -1.170693,-0.51171 0.286491,-0.93472 0.510011,0.83372 z m 4.276972,-0.1646 c 0.4439,-0.12901 0.707919,-0.47731 0.595207,-0.86561 -0.100295,-0.34509 -0.417901,-0.43399 -0.807897,-0.48511 -0.298979,-0.0369 -0.519007,-0.0394 -0.568678,-0.2105 -0.04491,-0.15448 0.07888,-0.32579 0.279788,-0.3841 0.158609,-0.0461 0.333305,-0.007 0.444007,0.12093 l 0.204505,-0.2504 c -0.159809,-0.21421 -0.436915,-0.29722 -0.749124,-0.20652 -0.393382,0.1143 -0.632601,0.45431 -0.528496,0.81291 0.09969,0.34328 0.424109,0.39338 0.713916,0.4331 0.286879,0.0357 0.609988,0.0743 0.66869,0.27651 0.04851,0.16697 -0.102587,0.33919 -0.348509,0.4106 -0.210079,0.061 -0.420899,0.016 -0.568501,-0.12672 l -0.215406,0.2734 c 0.198296,0.21661 0.521017,0.3059 0.880498,0.20151"
         style="fill:#000000;fill-opacity:1;fill-rule:nonzero;stroke:none;stroke-width:0.35277778"
         id="path923-0" />
      <path
         d="m -120.49577,345.18532 c -2.5703,3.9121 -4.067,8.59251 -4.067,13.62322 0,10.01808 5.9302,18.64999 14.47112,22.58018 -0.0261,0.0672 -0.0491,0.13532 -0.0685,0.20422 -8.6257,-3.95961 -14.6166,-12.67192 -14.6166,-22.7844 0,-5.0716 1.50819,-9.79039 4.0985,-13.73501 0.0578,0.0394 0.11931,0.077 0.18249,0.11179 z m 30.823993,36.35072 c 8.715904,-3.85872 14.797727,-12.58221 14.797727,-22.7275 0,-5.20961 -1.6038,-10.0445 -4.34411,-14.03851 0.0623,-0.0368 0.1216,-0.0758 0.17879,-0.11751 2.76249,4.0277 4.37931,8.90302 4.37931,14.15602 0,10.2397 -6.142813,19.04348 -14.943489,22.93119 -0.01962,-0.0692 -0.0423,-0.13719 -0.06823,-0.20369"
         style="fill:#000000;fill-opacity:1;fill-rule:nonzero;stroke:none;stroke-width:0.35277778"
         id="path925" />
    </g>
  </g>
</svg>
